<svg width="136" height="50" viewBox="0 0 136 50" fill="none" xmlns="http://www.w3.org/2000/svg">
<rect x="0.685547" y="0.887024" width="134.48" height="49" rx="5" fill="#0C2A4D"/>
<path d="M35.7636 37.387H21.6074C18.8935 37.387 16.6855 35.179 16.6855 32.4651V18.3089C16.6855 15.595 18.8935 13.387 21.6074 13.387H35.7636C38.4775 13.387 40.6855 15.595 40.6855 18.3089V32.4651C40.6855 35.179 38.4775 37.387 35.7636 37.387Z" fill="#00C3FF"/>
<path d="M35.7636 13.387H28.6855V37.387H35.7636C38.4775 37.387 40.6855 35.179 40.6855 32.4651V18.3089C40.6855 15.595 38.4775 13.387 35.7636 13.387Z" fill="#00AAF0"/>
<path d="M24.0752 31.8799C23.8584 32.2554 23.4637 32.4655 23.0583 32.4656C22.8596 32.4656 22.6585 32.4151 22.4744 32.3088C21.9148 31.9858 21.7224 31.2677 22.0454 30.7081L22.2759 30.3089H24.9822L24.0752 31.8799Z" fill="white"/>
<path d="M21.8652 29.371C21.2191 29.371 20.6934 28.8453 20.6934 28.1992C20.6934 27.553 21.2191 27.0273 21.8652 27.0273H24.1705L27.3323 21.5507L26.4754 20.0665C26.1524 19.5069 26.3447 18.7888 26.9043 18.4656C27.4639 18.1426 28.1821 18.3351 28.5051 18.8946L28.6855 19.207L28.8659 18.8946C29.1891 18.335 29.9072 18.1426 30.4667 18.4657C30.7377 18.6222 30.9317 18.8749 31.0127 19.1773C31.0937 19.4796 31.0521 19.7954 30.8956 20.0665L26.8767 27.0273H29.4117L30.7649 29.371H21.8652Z" fill="white"/>
<path d="M35.5057 29.3714H34.5536L35.3253 30.7081C35.6484 31.2676 35.456 31.9858 34.8965 32.3089C34.7158 32.4131 34.5154 32.4664 34.3123 32.4664C34.2105 32.4664 34.1082 32.453 34.0071 32.426C33.7048 32.3449 33.4521 32.151 33.2955 31.8799L29.2266 24.8323L30.5797 22.4886L33.2005 27.0277H35.5057C36.1519 27.0277 36.6776 27.5534 36.6776 28.1996C36.6776 28.8457 36.1519 29.3714 35.5057 29.3714Z" fill="#F2F2F2"/>
<path d="M28.6855 27.0276V29.3714H30.7649L29.4117 27.0276H28.6855Z" fill="#F2F2F2"/>
<path d="M31.0127 19.1777C30.9316 18.8754 30.7377 18.6226 30.4667 18.4662C29.9072 18.1431 29.189 18.3354 28.8659 18.8951L28.6855 19.2075V23.895L30.8956 20.067C31.0521 19.7959 31.0937 19.4801 31.0127 19.1777Z" fill="#F2F2F2"/>
<path d="M54.0723 14.9769C54.0723 15.6201 53.9525 16.1579 53.7129 16.5901C53.4733 17.0198 53.1257 17.3441 52.6699 17.5628C52.2142 17.779 51.6647 17.887 51.0215 17.887H49.4355V12.1761H51.1934C51.7845 12.1761 52.2949 12.2829 52.7246 12.4964C53.1543 12.7073 53.4863 13.0211 53.7207 13.4378C53.9551 13.8519 54.0723 14.3649 54.0723 14.9769ZM53.0957 15.0042C53.0957 14.5355 53.0215 14.15 52.873 13.848C52.7272 13.5459 52.5111 13.3219 52.2246 13.1761C51.9408 13.0276 51.5905 12.9534 51.1738 12.9534H50.373V17.1019H51.0371C51.7272 17.1019 52.2428 16.9261 52.584 16.5745C52.9251 16.223 53.0957 15.6995 53.0957 15.0042ZM59.0371 15.7151C59.0371 16.0745 58.9902 16.3935 58.8965 16.6722C58.8027 16.9508 58.666 17.1865 58.4863 17.3792C58.3066 17.5693 58.0905 17.7151 57.8379 17.8167C57.5853 17.9157 57.3001 17.9651 56.9824 17.9651C56.6855 17.9651 56.4134 17.9157 56.166 17.8167C55.9186 17.7151 55.7038 17.5693 55.5215 17.3792C55.3418 17.1865 55.2025 16.9508 55.1035 16.6722C55.0046 16.3935 54.9551 16.0745 54.9551 15.7151C54.9551 15.2386 55.0371 14.8349 55.2012 14.5042C55.3678 14.1709 55.6048 13.917 55.9121 13.7425C56.2194 13.568 56.5853 13.4808 57.0098 13.4808C57.4082 13.4808 57.7598 13.568 58.0645 13.7425C58.3691 13.917 58.6074 14.1709 58.7793 14.5042C58.9512 14.8375 59.0371 15.2412 59.0371 15.7151ZM55.9004 15.7151C55.9004 16.0303 55.9382 16.2998 56.0137 16.5237C56.0918 16.7477 56.2116 16.9196 56.373 17.0394C56.5345 17.1566 56.7428 17.2151 56.998 17.2151C57.2533 17.2151 57.4616 17.1566 57.623 17.0394C57.7845 16.9196 57.903 16.7477 57.9785 16.5237C58.054 16.2998 58.0918 16.0303 58.0918 15.7151C58.0918 15.4 58.054 15.1331 57.9785 14.9144C57.903 14.693 57.7845 14.525 57.623 14.4105C57.4616 14.2933 57.252 14.2347 56.9941 14.2347C56.6139 14.2347 56.3366 14.3623 56.1621 14.6175C55.9876 14.8727 55.9004 15.2386 55.9004 15.7151ZM63.627 17.8831L63.0801 15.8714C63.054 15.7724 63.0228 15.6526 62.9863 15.512C62.9499 15.3714 62.9134 15.2269 62.877 15.0784C62.8405 14.9274 62.8066 14.7881 62.7754 14.6605C62.7467 14.5329 62.7246 14.4339 62.709 14.3636H62.6777C62.6647 14.4339 62.6439 14.5329 62.6152 14.6605C62.5866 14.7881 62.554 14.9274 62.5176 15.0784C62.4811 15.2295 62.4447 15.3766 62.4082 15.5198C62.3743 15.6631 62.3431 15.7855 62.3145 15.887L61.7402 17.8831H60.7324L59.5215 13.5589H60.4512L61.0137 15.7073C61.0501 15.8532 61.0853 16.0107 61.1191 16.18C61.1556 16.3493 61.1868 16.5107 61.2129 16.6644C61.2389 16.818 61.2585 16.9443 61.2715 17.0433H61.3027C61.3132 16.973 61.3275 16.8844 61.3457 16.7776C61.3639 16.6683 61.3848 16.555 61.4082 16.4378C61.4316 16.318 61.4551 16.206 61.4785 16.1019C61.502 15.9951 61.5241 15.9092 61.5449 15.8441L62.209 13.5589H63.2129L63.8496 15.8441C63.8783 15.943 63.9095 16.068 63.9434 16.2191C63.9772 16.3675 64.0072 16.5172 64.0332 16.6683C64.0618 16.8167 64.0801 16.9404 64.0879 17.0394H64.1191C64.1296 16.9508 64.1478 16.831 64.1738 16.68C64.2025 16.5263 64.235 16.3636 64.2715 16.1917C64.3079 16.0172 64.3457 15.8558 64.3848 15.7073L64.959 13.5589H65.873L64.6543 17.8831H63.627ZM68.8691 13.4808C69.3561 13.4808 69.735 13.6071 70.0059 13.8597C70.2793 14.1097 70.416 14.512 70.416 15.0667V17.887H69.498V15.2386C69.498 14.9026 69.429 14.6513 69.291 14.4847C69.153 14.3154 68.9395 14.2308 68.6504 14.2308C68.2311 14.2308 67.9395 14.3597 67.7754 14.6175C67.6139 14.8753 67.5332 15.249 67.5332 15.7386V17.887H66.6152V13.5628H67.3301L67.459 14.1487H67.5098C67.6035 13.9977 67.7194 13.874 67.8574 13.7776C67.998 13.6787 68.1543 13.6045 68.3262 13.555C68.5007 13.5055 68.6816 13.4808 68.8691 13.4808ZM72.623 17.887H71.7012V11.8089H72.623V17.887ZM77.7637 15.7151C77.7637 16.0745 77.7168 16.3935 77.623 16.6722C77.5293 16.9508 77.3926 17.1865 77.2129 17.3792C77.0332 17.5693 76.8171 17.7151 76.5645 17.8167C76.3118 17.9157 76.0267 17.9651 75.709 17.9651C75.4121 17.9651 75.14 17.9157 74.8926 17.8167C74.6452 17.7151 74.4303 17.5693 74.248 17.3792C74.0684 17.1865 73.929 16.9508 73.8301 16.6722C73.7311 16.3935 73.6816 16.0745 73.6816 15.7151C73.6816 15.2386 73.7637 14.8349 73.9277 14.5042C74.0944 14.1709 74.3314 13.917 74.6387 13.7425C74.946 13.568 75.3118 13.4808 75.7363 13.4808C76.1348 13.4808 76.4863 13.568 76.791 13.7425C77.0957 13.917 77.334 14.1709 77.5059 14.5042C77.6777 14.8375 77.7637 15.2412 77.7637 15.7151ZM74.627 15.7151C74.627 16.0303 74.6647 16.2998 74.7402 16.5237C74.8184 16.7477 74.9382 16.9196 75.0996 17.0394C75.2611 17.1566 75.4694 17.2151 75.7246 17.2151C75.9798 17.2151 76.1882 17.1566 76.3496 17.0394C76.5111 16.9196 76.6296 16.7477 76.7051 16.5237C76.7806 16.2998 76.8184 16.0303 76.8184 15.7151C76.8184 15.4 76.7806 15.1331 76.7051 14.9144C76.6296 14.693 76.5111 14.525 76.3496 14.4105C76.1882 14.2933 75.9785 14.2347 75.7207 14.2347C75.3405 14.2347 75.0632 14.3623 74.8887 14.6175C74.7142 14.8727 74.627 15.2386 74.627 15.7151ZM80.5137 13.4808C81.0605 13.4808 81.4733 13.6019 81.752 13.8441C82.0332 14.0862 82.1738 14.4638 82.1738 14.9769V17.887H81.5215L81.3457 17.2737H81.3145C81.1921 17.43 81.0658 17.5589 80.9355 17.6605C80.8053 17.762 80.6543 17.8375 80.4824 17.887C80.3132 17.9391 80.1061 17.9651 79.8613 17.9651C79.6035 17.9651 79.373 17.9183 79.1699 17.8245C78.9668 17.7282 78.8066 17.5823 78.6895 17.387C78.5723 17.1917 78.5137 16.9443 78.5137 16.6448C78.5137 16.1995 78.679 15.8649 79.0098 15.6409C79.3431 15.417 79.8457 15.2933 80.5176 15.2698L81.2676 15.2425V15.0159C81.2676 14.7165 81.1973 14.5029 81.0566 14.3753C80.9186 14.2477 80.7233 14.1839 80.4707 14.1839C80.2546 14.1839 80.0449 14.2151 79.8418 14.2776C79.6387 14.3401 79.4408 14.417 79.248 14.5081L78.9512 13.8597C79.1621 13.7477 79.4017 13.6566 79.6699 13.5862C79.9408 13.5159 80.222 13.4808 80.5137 13.4808ZM81.2637 15.8206L80.7051 15.8401C80.2467 15.8558 79.9251 15.9339 79.7402 16.0745C79.5553 16.2151 79.4629 16.4079 79.4629 16.6526C79.4629 16.8662 79.5267 17.0224 79.6543 17.1214C79.7819 17.2178 79.9499 17.2659 80.1582 17.2659C80.4759 17.2659 80.7389 17.1761 80.9473 16.9964C81.1582 16.8141 81.2637 16.5472 81.2637 16.1956V15.8206ZM84.9121 17.9651C84.3965 17.9651 83.9824 17.7776 83.6699 17.4026C83.36 17.025 83.2051 16.4691 83.2051 15.7347C83.2051 14.9925 83.3626 14.4313 83.6777 14.0511C83.9954 13.6709 84.4134 13.4808 84.9316 13.4808C85.1504 13.4808 85.3418 13.5107 85.5059 13.5706C85.6699 13.6279 85.8105 13.706 85.9277 13.805C86.0475 13.904 86.1491 14.0146 86.2324 14.137H86.2754C86.2624 14.0563 86.2467 13.9404 86.2285 13.7894C86.2129 13.6357 86.2051 13.4938 86.2051 13.3636V11.8089H87.127V17.887H86.4082L86.2441 17.2972H86.2051C86.127 17.4222 86.028 17.5355 85.9082 17.637C85.791 17.736 85.6504 17.8154 85.4863 17.8753C85.3249 17.9352 85.1335 17.9651 84.9121 17.9651ZM85.1699 17.2191C85.5632 17.2191 85.8405 17.1058 86.002 16.8792C86.1634 16.6526 86.2467 16.3128 86.252 15.8597V15.7386C86.252 15.2542 86.1738 14.8831 86.0176 14.6253C85.8613 14.3649 85.5762 14.2347 85.1621 14.2347C84.8314 14.2347 84.5788 14.3688 84.4043 14.637C84.2324 14.9026 84.1465 15.2737 84.1465 15.7503C84.1465 16.2269 84.2324 16.5915 84.4043 16.8441C84.5788 17.0941 84.834 17.2191 85.1699 17.2191ZM94.3496 15.7151C94.3496 16.0745 94.3027 16.3935 94.209 16.6722C94.1152 16.9508 93.9785 17.1865 93.7988 17.3792C93.6191 17.5693 93.403 17.7151 93.1504 17.8167C92.8978 17.9157 92.6126 17.9651 92.2949 17.9651C91.998 17.9651 91.7259 17.9157 91.4785 17.8167C91.2311 17.7151 91.0163 17.5693 90.834 17.3792C90.6543 17.1865 90.515 16.9508 90.416 16.6722C90.3171 16.3935 90.2676 16.0745 90.2676 15.7151C90.2676 15.2386 90.3496 14.8349 90.5137 14.5042C90.6803 14.1709 90.9173 13.917 91.2246 13.7425C91.5319 13.568 91.8978 13.4808 92.3223 13.4808C92.7207 13.4808 93.0723 13.568 93.377 13.7425C93.6816 13.917 93.9199 14.1709 94.0918 14.5042C94.2637 14.8375 94.3496 15.2412 94.3496 15.7151ZM91.2129 15.7151C91.2129 16.0303 91.2507 16.2998 91.3262 16.5237C91.4043 16.7477 91.5241 16.9196 91.6855 17.0394C91.847 17.1566 92.0553 17.2151 92.3105 17.2151C92.5658 17.2151 92.7741 17.1566 92.9355 17.0394C93.097 16.9196 93.2155 16.7477 93.291 16.5237C93.3665 16.2998 93.4043 16.0303 93.4043 15.7151C93.4043 15.4 93.3665 15.1331 93.291 14.9144C93.2155 14.693 93.097 14.525 92.9355 14.4105C92.7741 14.2933 92.5645 14.2347 92.3066 14.2347C91.9264 14.2347 91.6491 14.3623 91.4746 14.6175C91.3001 14.8727 91.2129 15.2386 91.2129 15.7151ZM97.6582 13.4808C98.1452 13.4808 98.5241 13.6071 98.7949 13.8597C99.0684 14.1097 99.2051 14.512 99.2051 15.0667V17.887H98.2871V15.2386C98.2871 14.9026 98.2181 14.6513 98.0801 14.4847C97.9421 14.3154 97.7285 14.2308 97.4395 14.2308C97.0202 14.2308 96.7285 14.3597 96.5645 14.6175C96.403 14.8753 96.3223 15.249 96.3223 15.7386V17.887H95.4043V13.5628H96.1191L96.248 14.1487H96.2988C96.3926 13.9977 96.5085 13.874 96.6465 13.7776C96.7871 13.6787 96.9434 13.6045 97.1152 13.555C97.2897 13.5055 97.4707 13.4808 97.6582 13.4808ZM104.178 17.223C104.298 17.223 104.416 17.2125 104.533 17.1917C104.65 17.1683 104.757 17.1409 104.854 17.1097V17.805C104.752 17.8493 104.62 17.887 104.459 17.9183C104.298 17.9495 104.13 17.9651 103.955 17.9651C103.71 17.9651 103.49 17.9248 103.295 17.8441C103.1 17.7607 102.945 17.6188 102.83 17.4183C102.715 17.2178 102.658 16.9404 102.658 16.5862V14.262H102.068V13.8519L102.701 13.5276L103.002 12.6019H103.58V13.5628H104.818V14.262H103.58V16.5745C103.58 16.7933 103.635 16.956 103.744 17.0628C103.854 17.1696 103.998 17.223 104.178 17.223ZM106.65 11.8089V13.3362C106.65 13.4951 106.645 13.65 106.635 13.8011C106.627 13.9521 106.618 14.0693 106.607 14.1526H106.658C106.749 14.0016 106.861 13.8779 106.994 13.7816C107.127 13.6826 107.275 13.6084 107.439 13.5589C107.606 13.5094 107.783 13.4847 107.971 13.4847C108.301 13.4847 108.583 13.5407 108.814 13.6526C109.046 13.762 109.223 13.9326 109.346 14.1644C109.471 14.3961 109.533 14.6969 109.533 15.0667V17.887H108.615V15.2386C108.615 14.9026 108.546 14.6513 108.408 14.4847C108.27 14.3154 108.057 14.2308 107.768 14.2308C107.489 14.2308 107.268 14.2894 107.104 14.4066C106.942 14.5211 106.826 14.6917 106.756 14.9183C106.686 15.1422 106.65 15.4157 106.65 15.7386V17.887H105.732V11.8089H106.65ZM112.541 13.4808C112.926 13.4808 113.257 13.5602 113.533 13.7191C113.809 13.8779 114.021 14.1032 114.17 14.3948C114.318 14.6865 114.393 15.0355 114.393 15.4417V15.9339H111.506C111.516 16.3532 111.628 16.6761 111.842 16.9026C112.058 17.1292 112.36 17.2425 112.748 17.2425C113.024 17.2425 113.271 17.2165 113.49 17.1644C113.712 17.1097 113.939 17.0303 114.174 16.9261V17.6722C113.958 17.7737 113.738 17.848 113.514 17.8948C113.29 17.9417 113.021 17.9651 112.709 17.9651C112.285 17.9651 111.911 17.8831 111.588 17.7191C111.268 17.5524 111.016 17.305 110.834 16.9769C110.654 16.6487 110.564 16.2412 110.564 15.7542C110.564 15.2698 110.646 14.8584 110.811 14.5198C110.975 14.1813 111.205 13.9235 111.502 13.7464C111.799 13.5693 112.145 13.4808 112.541 13.4808ZM112.541 14.1722C112.252 14.1722 112.018 14.2659 111.838 14.4534C111.661 14.6409 111.557 14.9157 111.525 15.2776H113.494C113.492 15.0615 113.455 14.8701 113.385 14.7034C113.317 14.5368 113.213 14.4066 113.072 14.3128C112.934 14.2191 112.757 14.1722 112.541 14.1722Z" fill="white"/>
<path d="M55.8975 34.887L55.4053 33.014H52.1582L51.6523 34.887H48.6855L51.9463 24.8519H55.5488L58.8506 34.887H55.8975ZM54.8447 30.7991L54.4141 29.1585C54.3685 28.9808 54.3024 28.7278 54.2158 28.3997C54.1292 28.067 54.0426 27.7252 53.9561 27.3743C53.874 27.0189 53.8102 26.7272 53.7646 26.4993C53.7236 26.7272 53.6644 27.0097 53.5869 27.347C53.514 27.6797 53.4365 28.0101 53.3545 28.3382C53.277 28.6663 53.2087 28.9398 53.1494 29.1585L52.7188 30.7991H54.8447ZM64.5107 27.0052C65.3675 27.0052 66.0397 27.3493 66.5273 28.0374C67.015 28.721 67.2588 29.7077 67.2588 30.9974C67.2588 31.8769 67.1357 32.6175 66.8896 33.2191C66.6436 33.8161 66.3063 34.2672 65.8779 34.5726C65.4541 34.8734 64.971 35.0237 64.4287 35.0237C64.0641 35.0237 63.7542 34.9782 63.499 34.887C63.2484 34.7959 63.0387 34.6819 62.8701 34.5452C62.7061 34.4085 62.5671 34.2695 62.4531 34.1282H62.3711C62.3939 34.306 62.4121 34.4974 62.4258 34.7025C62.444 34.9075 62.4531 35.1468 62.4531 35.4202V38.2503H59.7803V27.1419H61.9541L62.3301 28.1263H62.4531C62.5807 27.9258 62.7357 27.7412 62.918 27.5726C63.1003 27.3994 63.3213 27.2627 63.5811 27.1624C63.8454 27.0576 64.1553 27.0052 64.5107 27.0052ZM63.5059 29.1038C63.2461 29.1038 63.041 29.1653 62.8906 29.2884C62.7402 29.4114 62.6309 29.5983 62.5625 29.8489C62.4987 30.095 62.4622 30.4026 62.4531 30.7718V30.9837C62.4531 31.3939 62.485 31.7402 62.5488 32.0228C62.6126 32.3008 62.722 32.5127 62.877 32.6585C63.0319 32.7998 63.2461 32.8704 63.5195 32.8704C63.7428 32.8704 63.9297 32.8066 64.0801 32.679C64.2305 32.5514 64.3444 32.3486 64.4219 32.0706C64.4993 31.7926 64.5381 31.4258 64.5381 30.97C64.5381 30.291 64.4492 29.8102 64.2715 29.5276C64.0983 29.2451 63.8431 29.1038 63.5059 29.1038ZM73.5205 27.0052C74.3773 27.0052 75.0495 27.3493 75.5371 28.0374C76.0247 28.721 76.2686 29.7077 76.2686 30.9974C76.2686 31.8769 76.1455 32.6175 75.8994 33.2191C75.6533 33.8161 75.3161 34.2672 74.8877 34.5726C74.4639 34.8734 73.9808 35.0237 73.4385 35.0237C73.0739 35.0237 72.764 34.9782 72.5088 34.887C72.2581 34.7959 72.0485 34.6819 71.8799 34.5452C71.7158 34.4085 71.5768 34.2695 71.4629 34.1282H71.3809C71.4036 34.306 71.4219 34.4974 71.4355 34.7025C71.4538 34.9075 71.4629 35.1468 71.4629 35.4202V38.2503H68.79V27.1419H70.9639L71.3398 28.1263H71.4629C71.5905 27.9258 71.7454 27.7412 71.9277 27.5726C72.11 27.3994 72.3311 27.2627 72.5908 27.1624C72.8551 27.0576 73.165 27.0052 73.5205 27.0052ZM72.5156 29.1038C72.2559 29.1038 72.0508 29.1653 71.9004 29.2884C71.75 29.4114 71.6406 29.5983 71.5723 29.8489C71.5085 30.095 71.472 30.4026 71.4629 30.7718V30.9837C71.4629 31.3939 71.4948 31.7402 71.5586 32.0228C71.6224 32.3008 71.7318 32.5127 71.8867 32.6585C72.0417 32.7998 72.2559 32.8704 72.5293 32.8704C72.7526 32.8704 72.9395 32.8066 73.0898 32.679C73.2402 32.5514 73.3542 32.3486 73.4316 32.0706C73.5091 31.7926 73.5479 31.4258 73.5479 30.97C73.5479 30.291 73.459 29.8102 73.2812 29.5276C73.1081 29.2451 72.8529 29.1038 72.5156 29.1038ZM88.1289 31.8519C88.1289 32.3942 87.9922 32.9092 87.7188 33.3968C87.4453 33.8799 87.0192 34.2718 86.4404 34.5726C85.8662 34.8734 85.1234 35.0237 84.2119 35.0237C83.7562 35.0237 83.3551 35.0032 83.0088 34.9622C82.667 34.9212 82.348 34.8551 82.0518 34.764C81.7555 34.6683 81.4479 34.5452 81.1289 34.3948V31.9886C81.6712 32.262 82.2181 32.4717 82.7695 32.6175C83.321 32.7588 83.82 32.8294 84.2666 32.8294C84.5355 32.8294 84.7542 32.7975 84.9229 32.7337C85.096 32.6699 85.2236 32.5833 85.3057 32.4739C85.3877 32.36 85.4287 32.2301 85.4287 32.0843C85.4287 31.9111 85.3672 31.7653 85.2441 31.6468C85.1257 31.5237 84.9342 31.3961 84.6699 31.264C84.4056 31.1318 84.057 30.9678 83.624 30.7718C83.2549 30.5986 82.9199 30.4209 82.6191 30.2386C82.3229 30.0563 82.0677 29.8489 81.8535 29.6165C81.6439 29.3795 81.4821 29.1038 81.3682 28.7894C81.2542 28.4749 81.1973 28.1035 81.1973 27.6751C81.1973 27.0325 81.3545 26.4948 81.6689 26.0618C81.988 25.6243 82.43 25.2962 82.9951 25.0775C83.5648 24.8587 84.221 24.7493 84.9639 24.7493C85.6156 24.7493 86.2012 24.8222 86.7207 24.9681C87.2448 25.1139 87.7142 25.2803 88.1289 25.4671L87.3018 27.5521C86.8734 27.3561 86.4518 27.2012 86.0371 27.0872C85.6224 26.9687 85.2373 26.9095 84.8818 26.9095C84.6494 26.9095 84.458 26.9391 84.3076 26.9984C84.1618 27.053 84.0524 27.1282 83.9795 27.2239C83.9111 27.3196 83.877 27.429 83.877 27.5521C83.877 27.707 83.9362 27.846 84.0547 27.9691C84.1777 28.0921 84.3805 28.2265 84.6631 28.3724C84.9502 28.5137 85.3398 28.6982 85.832 28.9261C86.3197 29.1448 86.7344 29.3818 87.0762 29.637C87.418 29.8877 87.6777 30.1907 87.8555 30.5462C88.0378 30.8971 88.1289 31.3323 88.1289 31.8519ZM93.3105 32.9114C93.5521 32.9114 93.7731 32.8864 93.9736 32.8362C94.1742 32.7861 94.3838 32.7223 94.6025 32.6448V34.5931C94.3109 34.7207 94.001 34.8232 93.6729 34.9007C93.3493 34.9827 92.9346 35.0237 92.4287 35.0237C91.9274 35.0237 91.4854 34.9463 91.1025 34.7913C90.7197 34.6318 90.4212 34.3584 90.207 33.971C89.9974 33.5791 89.8926 33.0345 89.8926 32.3372V29.1448H88.9561V28.0579L90.1455 27.2171L90.8359 25.5901H92.5859V27.1419H94.4863V29.1448H92.5859V32.1595C92.5859 32.4101 92.6497 32.5993 92.7773 32.7269C92.9049 32.8499 93.0827 32.9114 93.3105 32.9114ZM103.353 30.9974C103.353 31.6445 103.264 32.2187 103.086 32.72C102.908 33.2213 102.651 33.6429 102.313 33.9847C101.976 34.3265 101.568 34.5862 101.09 34.764C100.611 34.9372 100.071 35.0237 99.4697 35.0237C98.9092 35.0237 98.3942 34.9372 97.9248 34.764C97.46 34.5862 97.0544 34.3265 96.708 33.9847C96.3617 33.6429 96.0928 33.2213 95.9014 32.72C95.7145 32.2187 95.6211 31.6445 95.6211 30.9974C95.6211 30.1406 95.776 29.416 96.0859 28.8235C96.4004 28.2311 96.847 27.7799 97.4258 27.47C98.0091 27.1601 98.7041 27.0052 99.5107 27.0052C100.254 27.0052 100.914 27.1601 101.493 27.47C102.072 27.7799 102.525 28.2311 102.854 28.8235C103.186 29.416 103.353 30.1406 103.353 30.9974ZM98.335 30.9974C98.335 31.4394 98.3737 31.8131 98.4512 32.1185C98.5286 32.4193 98.6517 32.6494 98.8203 32.8089C98.9935 32.9638 99.2191 33.0413 99.4971 33.0413C99.7751 33.0413 99.9961 32.9638 100.16 32.8089C100.324 32.6494 100.443 32.4193 100.516 32.1185C100.593 31.8131 100.632 31.4394 100.632 30.9974C100.632 30.5553 100.593 30.1862 100.516 29.89C100.443 29.5937 100.322 29.3704 100.153 29.22C99.9893 29.0696 99.766 28.9944 99.4834 28.9944C99.0778 28.9944 98.7839 29.1631 98.6016 29.5003C98.4238 29.8375 98.335 30.3366 98.335 30.9974ZM109.56 27.0052C109.705 27.0052 109.858 27.0166 110.018 27.0394C110.177 27.0576 110.296 27.0735 110.373 27.0872L110.134 29.6097C110.047 29.5869 109.936 29.5687 109.799 29.555C109.662 29.5368 109.471 29.5276 109.225 29.5276C109.056 29.5276 108.876 29.5436 108.685 29.5755C108.493 29.6074 108.311 29.6758 108.138 29.7806C107.969 29.8808 107.83 30.0358 107.721 30.2454C107.611 30.4505 107.557 30.7285 107.557 31.0794V34.887H104.884V27.1419H106.873L107.29 28.3792H107.42C107.561 28.124 107.741 27.8939 107.96 27.6888C108.183 27.4791 108.432 27.3128 108.705 27.1898C108.983 27.0667 109.268 27.0052 109.56 27.0052ZM114.946 27.0052C115.698 27.0052 116.348 27.1373 116.895 27.4017C117.441 27.6614 117.863 28.0534 118.159 28.5775C118.455 29.1015 118.604 29.7578 118.604 30.5462V31.7357H113.825C113.848 32.1413 113.998 32.4739 114.276 32.7337C114.559 32.9935 114.974 33.1234 115.521 33.1234C116.004 33.1234 116.446 33.0755 116.847 32.9798C117.252 32.8841 117.669 32.736 118.098 32.5355V34.4564C117.724 34.6523 117.316 34.7959 116.874 34.887C116.432 34.9782 115.874 35.0237 115.199 35.0237C114.42 35.0237 113.723 34.8847 113.107 34.6068C112.492 34.3288 112.007 33.8981 111.651 33.3148C111.3 32.7314 111.125 31.9818 111.125 31.0657C111.125 30.136 111.285 29.3727 111.604 28.7757C111.923 28.1741 112.369 27.7298 112.943 27.4427C113.518 27.151 114.185 27.0052 114.946 27.0052ZM115.042 28.8235C114.728 28.8235 114.463 28.9238 114.249 29.1243C114.039 29.3203 113.916 29.6302 113.88 30.054H116.177C116.172 29.8262 116.127 29.6188 116.04 29.4319C115.953 29.2451 115.826 29.097 115.657 28.9876C115.493 28.8782 115.288 28.8235 115.042 28.8235Z" fill="white"/>
</svg>
