<svg width="33" height="33" viewBox="0 0 33 33" fill="none" xmlns="http://www.w3.org/2000/svg">
<rect x="0.966797" y="0.861511" width="32" height="32" rx="16" fill="black" fill-opacity="0.2"/>
<path d="M13.3668 16.8615C13.3668 18.8497 14.9786 20.4615 16.9668 20.4615C18.5343 20.4615 19.8677 19.4598 20.3619 18.0615H16.9668V15.6615H22.8496V18.0615H22.8468C22.2909 20.8002 19.8695 22.8615 16.9668 22.8615C13.6531 22.8615 10.9668 20.1752 10.9668 16.8615C10.9668 13.5478 13.6531 10.8615 16.9668 10.8615C19.0338 10.8615 20.8567 11.9067 21.9357 13.4974L19.9692 14.8744C19.3245 13.9024 18.2205 13.2615 16.9668 13.2615C14.9786 13.2615 13.3668 14.8733 13.3668 16.8615Z" fill="white"/>
</svg>
