<svg width="149" height="50" viewBox="0 0 149 50" fill="none" xmlns="http://www.w3.org/2000/svg">
<rect x="0.54541" y="0.887024" width="148.14" height="49" rx="5" fill="#0C2A4D"/>
<mask id="mask0_3908_6001" style="mask-type:luminance" maskUnits="userSpaceOnUse" x="16" y="13" width="25" height="25">
<path d="M40.5454 13.387H16.5454V37.387H40.5454V13.387Z" fill="white"/>
</mask>
<g mask="url(#mask0_3908_6001)">
<path d="M34.4693 21.6193C31.6813 20.0599 27.2064 17.5559 20.2655 13.6695C19.7975 13.3605 19.2591 13.32 18.7939 13.4774L30.7026 25.386L34.4693 21.6193Z" fill="#32BBFF"/>
<path d="M18.7938 13.4774C18.7066 13.5069 18.6217 13.5425 18.5406 13.5855C18.0269 13.8634 17.6494 14.3981 17.6494 15.0744V35.6975C17.6494 36.3738 18.0269 36.9085 18.5406 37.1863C18.6216 37.2293 18.7064 37.2651 18.7935 37.2948L30.7023 25.386L18.7938 13.4774Z" fill="#32BBFF"/>
<path d="M30.7024 25.386L18.7935 37.2949C19.2588 37.4535 19.7972 37.4161 20.2653 37.1025C26.9965 33.3333 31.4209 30.859 34.2412 29.2863C34.3197 29.2422 34.3967 29.1991 34.4727 29.1564L30.7024 25.386Z" fill="#32BBFF"/>
<path d="M17.6494 25.386V35.6976C17.6494 36.3739 18.0269 36.9086 18.5406 37.1864C18.6216 37.2294 18.7064 37.2652 18.7935 37.2949L30.7023 25.386H17.6494Z" fill="#2C9FD9"/>
<path d="M20.2652 13.6696C19.7095 13.3026 19.0542 13.3131 18.5405 13.5857L30.5216 25.5668L34.469 21.6194C31.6811 20.06 27.2062 17.556 20.2652 13.6696Z" fill="#29CC5E"/>
<path d="M30.5217 25.2054L18.5405 37.1864C19.0543 37.459 19.7095 37.4747 20.2652 37.1025C26.9964 33.3333 31.4209 30.859 34.2412 29.2863C34.3197 29.2422 34.3966 29.1991 34.4726 29.1564L30.5217 25.2054Z" fill="#D93F21"/>
<path d="M39.4414 25.3859C39.4414 24.8145 39.1531 24.2379 38.5816 23.9181C38.5816 23.9181 37.5129 23.3218 34.2372 21.4896L30.3408 25.3859L34.241 29.2862C37.4808 27.4671 38.5816 26.8537 38.5816 26.8537C39.1531 26.534 39.4414 25.9573 39.4414 25.3859Z" fill="#FFD500"/>
<path d="M38.5816 26.8539C39.1531 26.5341 39.4414 25.9574 39.4414 25.386H30.3408L34.241 29.2863C37.4808 27.4672 38.5816 26.8539 38.5816 26.8539Z" fill="#FFAA00"/>
</g>
<path d="M51.6001 14.7855H53.7329V17.6526C53.4334 17.7516 53.1235 17.8284 52.8032 17.8831C52.4829 17.9378 52.1235 17.9651 51.7251 17.9651C51.1444 17.9651 50.6522 17.8506 50.2485 17.6214C49.8475 17.3896 49.5428 17.055 49.3345 16.6175C49.1261 16.1774 49.022 15.6474 49.022 15.0276C49.022 14.4313 49.1379 13.9144 49.3696 13.4769C49.6014 13.0368 49.9386 12.6969 50.3813 12.4573C50.8241 12.2151 51.3605 12.0941 51.9907 12.0941C52.3006 12.0941 52.6001 12.1253 52.8892 12.1878C53.1808 12.2477 53.4478 12.331 53.6899 12.4378L53.3618 13.2112C53.1691 13.1201 52.953 13.0433 52.7134 12.9808C52.4738 12.9183 52.2251 12.887 51.9673 12.887C51.5584 12.887 51.2056 12.9756 50.9087 13.1526C50.6144 13.3297 50.3879 13.5797 50.229 13.9026C50.0701 14.223 49.9907 14.6019 49.9907 15.0394C49.9907 15.4638 50.0545 15.8362 50.1821 16.1566C50.3097 16.4769 50.509 16.7269 50.7798 16.9066C51.0532 17.0836 51.4061 17.1722 51.8384 17.1722C52.0545 17.1722 52.2381 17.1605 52.3892 17.137C52.5402 17.1136 52.6795 17.0875 52.8071 17.0589V15.5862H51.6001V14.7855ZM56.729 13.4808C57.1144 13.4808 57.4451 13.5602 57.7212 13.7191C57.9972 13.8779 58.2095 14.1032 58.3579 14.3948C58.5063 14.6865 58.5806 15.0355 58.5806 15.4417V15.9339H55.6938C55.7043 16.3532 55.8162 16.6761 56.0298 16.9026C56.2459 17.1292 56.548 17.2425 56.936 17.2425C57.2121 17.2425 57.4595 17.2165 57.6782 17.1644C57.8996 17.1097 58.1274 17.0303 58.3618 16.9261V17.6722C58.1457 17.7737 57.9256 17.848 57.7017 17.8948C57.4777 17.9417 57.2095 17.9651 56.897 17.9651C56.4725 17.9651 56.0988 17.8831 55.7759 17.7191C55.4556 17.5524 55.2043 17.305 55.022 16.9769C54.8423 16.6487 54.7524 16.2412 54.7524 15.7542C54.7524 15.2698 54.8345 14.8584 54.9985 14.5198C55.1626 14.1813 55.3931 13.9235 55.6899 13.7464C55.9868 13.5693 56.3332 13.4808 56.729 13.4808ZM56.729 14.1722C56.4399 14.1722 56.2056 14.2659 56.0259 14.4534C55.8488 14.6409 55.7446 14.9157 55.7134 15.2776H57.6821C57.6795 15.0615 57.6431 14.8701 57.5728 14.7034C57.505 14.5368 57.4009 14.4066 57.2603 14.3128C57.1222 14.2191 56.9451 14.1722 56.729 14.1722ZM61.2251 17.223C61.3449 17.223 61.4634 17.2125 61.5806 17.1917C61.6978 17.1683 61.8045 17.1409 61.9009 17.1097V17.805C61.7993 17.8493 61.6678 17.887 61.5063 17.9183C61.3449 17.9495 61.1769 17.9651 61.0024 17.9651C60.7576 17.9651 60.5376 17.9248 60.3423 17.8441C60.147 17.7607 59.992 17.6188 59.8774 17.4183C59.7629 17.2178 59.7056 16.9404 59.7056 16.5862V14.262H59.1157V13.8519L59.7485 13.5276L60.0493 12.6019H60.6274V13.5628H61.8657V14.262H60.6274V16.5745C60.6274 16.7933 60.6821 16.956 60.7915 17.0628C60.9009 17.1696 61.0454 17.223 61.2251 17.223ZM65.7759 13.5628V17.887H64.8579V13.5628H65.7759ZM65.3228 11.9066C65.4634 11.9066 65.5845 11.9443 65.686 12.0198C65.7902 12.0954 65.8423 12.2256 65.8423 12.4105C65.8423 12.5928 65.7902 12.723 65.686 12.8011C65.5845 12.8766 65.4634 12.9144 65.3228 12.9144C65.1769 12.9144 65.0532 12.8766 64.9517 12.8011C64.8527 12.723 64.8032 12.5928 64.8032 12.4105C64.8032 12.2256 64.8527 12.0954 64.9517 12.0198C65.0532 11.9443 65.1769 11.9066 65.3228 11.9066ZM68.7017 17.223C68.8215 17.223 68.9399 17.2125 69.0571 17.1917C69.1743 17.1683 69.2811 17.1409 69.3774 17.1097V17.805C69.2759 17.8493 69.1444 17.887 68.9829 17.9183C68.8215 17.9495 68.6535 17.9651 68.479 17.9651C68.2342 17.9651 68.0142 17.9248 67.8188 17.8441C67.6235 17.7607 67.4686 17.6188 67.354 17.4183C67.2394 17.2178 67.1821 16.9404 67.1821 16.5862V14.262H66.5923V13.8519L67.2251 13.5276L67.5259 12.6019H68.104V13.5628H69.3423V14.262H68.104V16.5745C68.104 16.7933 68.1587 16.956 68.2681 17.0628C68.3774 17.1696 68.522 17.223 68.7017 17.223ZM76.1626 15.7151C76.1626 16.0745 76.1157 16.3935 76.022 16.6722C75.9282 16.9508 75.7915 17.1865 75.6118 17.3792C75.4321 17.5693 75.216 17.7151 74.9634 17.8167C74.7108 17.9157 74.4256 17.9651 74.1079 17.9651C73.811 17.9651 73.5389 17.9157 73.2915 17.8167C73.0441 17.7151 72.8293 17.5693 72.647 17.3792C72.4673 17.1865 72.328 16.9508 72.229 16.6722C72.13 16.3935 72.0806 16.0745 72.0806 15.7151C72.0806 15.2386 72.1626 14.8349 72.3267 14.5042C72.4933 14.1709 72.7303 13.917 73.0376 13.7425C73.3449 13.568 73.7108 13.4808 74.1353 13.4808C74.5337 13.4808 74.8853 13.568 75.1899 13.7425C75.4946 13.917 75.7329 14.1709 75.9048 14.5042C76.0767 14.8375 76.1626 15.2412 76.1626 15.7151ZM73.0259 15.7151C73.0259 16.0303 73.0636 16.2998 73.1392 16.5237C73.2173 16.7477 73.3371 16.9196 73.4985 17.0394C73.66 17.1566 73.8683 17.2151 74.1235 17.2151C74.3787 17.2151 74.5871 17.1566 74.7485 17.0394C74.91 16.9196 75.0285 16.7477 75.104 16.5237C75.1795 16.2998 75.2173 16.0303 75.2173 15.7151C75.2173 15.4 75.1795 15.1331 75.104 14.9144C75.0285 14.693 74.91 14.525 74.7485 14.4105C74.5871 14.2933 74.3774 14.2347 74.1196 14.2347C73.7394 14.2347 73.4621 14.3623 73.2876 14.6175C73.1131 14.8727 73.0259 15.2386 73.0259 15.7151ZM79.4712 13.4808C79.9582 13.4808 80.3371 13.6071 80.6079 13.8597C80.8813 14.1097 81.0181 14.512 81.0181 15.0667V17.887H80.1001V15.2386C80.1001 14.9026 80.0311 14.6513 79.8931 14.4847C79.755 14.3154 79.5415 14.2308 79.2524 14.2308C78.8332 14.2308 78.5415 14.3597 78.3774 14.6175C78.216 14.8753 78.1353 15.249 78.1353 15.7386V17.887H77.2173V13.5628H77.9321L78.061 14.1487H78.1118C78.2056 13.9977 78.3215 13.874 78.4595 13.7776C78.6001 13.6787 78.7563 13.6045 78.9282 13.555C79.1027 13.5055 79.2837 13.4808 79.4712 13.4808Z" fill="white"/>
<path d="M53.6382 29.0355H57.9517V34.4222C57.4367 34.5999 56.8465 34.7457 56.1812 34.8597C55.5158 34.9691 54.8185 35.0237 54.0894 35.0237C53.1278 35.0237 52.2847 34.8369 51.5601 34.4632C50.8354 34.0895 50.2703 33.5221 49.8647 32.761C49.4591 31.9954 49.2563 31.0293 49.2563 29.8626C49.2563 28.8144 49.4569 27.9098 49.8579 27.1487C50.259 26.3831 50.8491 25.7929 51.6284 25.3782C52.4123 24.959 53.3716 24.7493 54.5063 24.7493C55.1307 24.7493 55.7231 24.8086 56.2837 24.9271C56.8442 25.0456 57.3319 25.1959 57.7466 25.3782L56.8921 27.4974C56.5321 27.3196 56.1584 27.1875 55.771 27.1009C55.3836 27.0097 54.9666 26.9642 54.52 26.9642C53.923 26.9642 53.4422 27.0986 53.0776 27.3675C52.7176 27.6364 52.4556 27.9964 52.2915 28.4476C52.1274 28.8942 52.0454 29.3887 52.0454 29.931C52.0454 30.5508 52.132 31.0748 52.3052 31.5032C52.4829 31.9271 52.7404 32.2506 53.0776 32.4739C53.4194 32.6927 53.8319 32.8021 54.3149 32.8021C54.4744 32.8021 54.6681 32.7907 54.896 32.7679C55.1284 32.7451 55.3039 32.7178 55.4224 32.6859V31.1204H53.6382V29.0355ZM67.228 30.9974C67.228 31.6445 67.1392 32.2187 66.9614 32.72C66.7837 33.2213 66.5262 33.6429 66.189 33.9847C65.8517 34.3265 65.4438 34.5862 64.9653 34.764C64.4868 34.9372 63.9468 35.0237 63.3452 35.0237C62.7847 35.0237 62.2697 34.9372 61.8003 34.764C61.3354 34.5862 60.9299 34.3265 60.5835 33.9847C60.2371 33.6429 59.9683 33.2213 59.7769 32.72C59.59 32.2187 59.4966 31.6445 59.4966 30.9974C59.4966 30.1406 59.6515 29.416 59.9614 28.8235C60.2759 28.2311 60.7225 27.7799 61.3013 27.47C61.8846 27.1601 62.5796 27.0052 63.3862 27.0052C64.1291 27.0052 64.7899 27.1601 65.3687 27.47C65.9474 27.7799 66.4009 28.2311 66.729 28.8235C67.0617 29.416 67.228 30.1406 67.228 30.9974ZM62.2104 30.9974C62.2104 31.4394 62.2492 31.8131 62.3267 32.1185C62.4041 32.4193 62.5272 32.6494 62.6958 32.8089C62.869 32.9638 63.0946 33.0413 63.3726 33.0413C63.6506 33.0413 63.8716 32.9638 64.0356 32.8089C64.1997 32.6494 64.3182 32.4193 64.3911 32.1185C64.4686 31.8131 64.5073 31.4394 64.5073 30.9974C64.5073 30.5553 64.4686 30.1862 64.3911 29.89C64.3182 29.5937 64.1974 29.3704 64.0288 29.22C63.8647 29.0696 63.6414 28.9944 63.3589 28.9944C62.9533 28.9944 62.6593 29.1631 62.4771 29.5003C62.2993 29.8375 62.2104 30.3366 62.2104 30.9974ZM76.1558 30.9974C76.1558 31.6445 76.0669 32.2187 75.8892 32.72C75.7114 33.2213 75.4539 33.6429 75.1167 33.9847C74.7795 34.3265 74.3716 34.5862 73.8931 34.764C73.4146 34.9372 72.8745 35.0237 72.2729 35.0237C71.7124 35.0237 71.1974 34.9372 70.728 34.764C70.2632 34.5862 69.8576 34.3265 69.5112 33.9847C69.1649 33.6429 68.896 33.2213 68.7046 32.72C68.5177 32.2187 68.4243 31.6445 68.4243 30.9974C68.4243 30.1406 68.5793 29.416 68.8892 28.8235C69.2036 28.2311 69.6502 27.7799 70.229 27.47C70.8123 27.1601 71.5073 27.0052 72.314 27.0052C73.0568 27.0052 73.7176 27.1601 74.2964 27.47C74.8752 27.7799 75.3286 28.2311 75.6567 28.8235C75.9894 29.416 76.1558 30.1406 76.1558 30.9974ZM71.1382 30.9974C71.1382 31.4394 71.1769 31.8131 71.2544 32.1185C71.3319 32.4193 71.4549 32.6494 71.6235 32.8089C71.7967 32.9638 72.0223 33.0413 72.3003 33.0413C72.5783 33.0413 72.7993 32.9638 72.9634 32.8089C73.1274 32.6494 73.2459 32.4193 73.3188 32.1185C73.3963 31.8131 73.4351 31.4394 73.4351 30.9974C73.4351 30.5553 73.3963 30.1862 73.3188 29.89C73.2459 29.5937 73.1252 29.3704 72.9565 29.22C72.7925 29.0696 72.5692 28.9944 72.2866 28.9944C71.881 28.9944 71.5871 29.1631 71.4048 29.5003C71.2271 29.8375 71.1382 30.3366 71.1382 30.9974ZM80.3325 38.2503C79.2342 38.2503 78.3866 38.0657 77.7896 37.6966C77.1971 37.332 76.9009 36.8056 76.9009 36.1175C76.9009 35.6572 77.0444 35.2767 77.3315 34.9759C77.6187 34.6751 78.0493 34.4586 78.6235 34.3265C78.3866 34.2262 78.1792 34.0644 78.0015 33.8411C77.8283 33.6178 77.7417 33.3968 77.7417 33.178C77.7417 32.9365 77.8078 32.7246 77.9399 32.5423C78.0721 32.3554 78.3478 32.1344 78.7671 31.8792C78.366 31.7015 78.0493 31.4235 77.8169 31.0452C77.589 30.667 77.4751 30.2067 77.4751 29.6644C77.4751 29.1038 77.6027 28.6253 77.8579 28.2288C78.1177 27.8323 78.4937 27.5293 78.9858 27.3196C79.4826 27.11 80.0864 27.0052 80.7974 27.0052C80.8931 27.0052 81.0389 27.0143 81.2349 27.0325C81.4308 27.0462 81.6291 27.0644 81.8296 27.0872C82.0301 27.1054 82.1851 27.1237 82.2944 27.1419H84.9946V28.4339L83.9351 28.8235C84.008 28.9557 84.0627 29.0993 84.0991 29.2542C84.1356 29.4092 84.1538 29.5732 84.1538 29.7464C84.1538 30.5804 83.8599 31.2275 83.272 31.6878C82.6886 32.1481 81.8159 32.3782 80.6538 32.3782C80.3667 32.3782 80.1388 32.36 79.9702 32.3235C79.9383 32.3828 79.9132 32.442 79.895 32.5013C79.8813 32.556 79.8745 32.6084 79.8745 32.6585C79.8745 32.7633 79.936 32.8476 80.0591 32.9114C80.1867 32.9707 80.3394 33.0117 80.5171 33.0345C80.6994 33.0573 80.8726 33.0687 81.0366 33.0687H82.3218C83.1922 33.0687 83.8439 33.251 84.2769 33.6155C84.7098 33.9801 84.9263 34.5293 84.9263 35.263C84.9263 36.2064 84.5229 36.9401 83.7163 37.4642C82.9142 37.9883 81.7863 38.2503 80.3325 38.2503ZM80.4624 36.5823C80.786 36.5823 81.1118 36.5527 81.4399 36.4935C81.7681 36.4388 82.0438 36.3476 82.2671 36.22C82.4904 36.0924 82.6021 35.9238 82.6021 35.7142C82.6021 35.5547 82.536 35.4339 82.4038 35.3519C82.2716 35.2744 82.1007 35.222 81.8911 35.1946C81.6815 35.1673 81.4604 35.1536 81.228 35.1536H80.189C79.9976 35.1536 79.8221 35.1832 79.6626 35.2425C79.5076 35.3063 79.3846 35.3906 79.2935 35.4954C79.2023 35.6002 79.1567 35.7187 79.1567 35.8509C79.1567 36.0696 79.2752 36.2451 79.5122 36.3773C79.7492 36.514 80.0659 36.5823 80.4624 36.5823ZM80.8247 30.8675C81.0799 30.8675 81.2759 30.7695 81.4126 30.5735C81.5539 30.3776 81.6245 30.0836 81.6245 29.6917C81.6245 29.2907 81.5584 28.9899 81.4263 28.7894C81.2941 28.5888 81.0936 28.4886 80.8247 28.4886C80.5467 28.4886 80.3394 28.5888 80.2026 28.7894C80.0659 28.9853 79.9976 29.2816 79.9976 29.678C79.9976 30.0745 80.0659 30.373 80.2026 30.5735C80.3394 30.7695 80.5467 30.8675 80.8247 30.8675ZM88.8501 34.887H86.1772V24.2503H88.8501V34.887ZM94.189 27.0052C94.9409 27.0052 95.5903 27.1373 96.1372 27.4017C96.6841 27.6614 97.1056 28.0534 97.4019 28.5775C97.6981 29.1015 97.8462 29.7578 97.8462 30.5462V31.7357H93.0679C93.0907 32.1413 93.241 32.4739 93.519 32.7337C93.8016 32.9935 94.2163 33.1234 94.7632 33.1234C95.2463 33.1234 95.6883 33.0755 96.0894 32.9798C96.495 32.8841 96.9119 32.736 97.3403 32.5355V34.4564C96.9666 34.6523 96.5588 34.7959 96.1167 34.887C95.6746 34.9782 95.1164 35.0237 94.4419 35.0237C93.6626 35.0237 92.9653 34.8847 92.3501 34.6068C91.7349 34.3288 91.2495 33.8981 90.894 33.3148C90.5431 32.7314 90.3677 31.9818 90.3677 31.0657C90.3677 30.136 90.5272 29.3727 90.8462 28.7757C91.1652 28.1741 91.6118 27.7298 92.186 27.4427C92.7603 27.151 93.4279 27.0052 94.189 27.0052ZM94.2847 28.8235C93.9702 28.8235 93.7059 28.9238 93.4917 29.1243C93.2821 29.3203 93.159 29.6302 93.1226 30.054H95.4194C95.4149 29.8262 95.3693 29.6188 95.2827 29.4319C95.1961 29.2451 95.0685 29.097 94.8999 28.9876C94.7358 28.8782 94.5308 28.8235 94.2847 28.8235ZM106.61 24.8929C107.877 24.8929 108.825 25.1686 109.454 25.72C110.087 26.2715 110.404 27.0553 110.404 28.0716C110.404 28.5273 110.338 28.9648 110.206 29.3841C110.078 29.8034 109.866 30.1771 109.57 30.5052C109.278 30.8333 108.889 31.0931 108.401 31.2845C107.918 31.4759 107.321 31.5716 106.61 31.5716H105.851V34.887H103.151V24.8929H106.61ZM106.548 27.0735H105.851V29.3704H106.384C106.617 29.3704 106.833 29.3317 107.034 29.2542C107.234 29.1722 107.394 29.0423 107.512 28.8646C107.635 28.6823 107.697 28.4407 107.697 28.14C107.697 27.8255 107.603 27.5703 107.417 27.3743C107.23 27.1738 106.94 27.0735 106.548 27.0735ZM114.512 34.887H111.839V24.2503H114.512V34.887ZM120.145 27.0052C121.125 27.0052 121.89 27.249 122.442 27.7366C122.993 28.2197 123.269 28.9101 123.269 29.8079V34.887H121.417L120.904 33.8616H120.849C120.63 34.1351 120.405 34.3584 120.172 34.5316C119.944 34.7002 119.682 34.8232 119.386 34.9007C119.09 34.9827 118.728 35.0237 118.299 35.0237C117.853 35.0237 117.452 34.9326 117.096 34.7503C116.741 34.568 116.46 34.2923 116.255 33.9232C116.05 33.554 115.948 33.0869 115.948 32.5218C115.948 31.6924 116.235 31.0771 116.809 30.6761C117.383 30.275 118.215 30.0495 119.304 29.9993L120.596 29.9583V29.8489C120.596 29.5026 120.51 29.2565 120.336 29.1107C120.168 28.9648 119.94 28.8919 119.653 28.8919C119.347 28.8919 119.006 28.9466 118.627 29.056C118.254 29.1608 117.878 29.2975 117.5 29.4661L116.727 27.7025C117.174 27.4746 117.68 27.3014 118.245 27.1829C118.81 27.0644 119.443 27.0052 120.145 27.0052ZM120.61 31.428L119.995 31.4554C119.502 31.4736 119.156 31.5602 118.956 31.7151C118.76 31.8655 118.662 32.082 118.662 32.3646C118.662 32.6289 118.732 32.8248 118.874 32.9525C119.015 33.0755 119.202 33.137 119.434 33.137C119.758 33.137 120.033 33.0345 120.261 32.8294C120.494 32.6243 120.61 32.3577 120.61 32.0296V31.428ZM124.151 27.1419H126.967L128.28 31.5853C128.298 31.6491 128.316 31.7288 128.334 31.8245C128.353 31.9157 128.369 32.0137 128.382 32.1185C128.396 32.2233 128.405 32.3258 128.41 32.4261H128.464C128.487 32.2392 128.512 32.0775 128.54 31.9407C128.571 31.7995 128.601 31.6855 128.628 31.5989L129.975 27.1419H132.703L129.64 35.3792C129.403 36.0081 129.127 36.5345 128.813 36.9583C128.503 37.3867 128.118 37.708 127.658 37.9222C127.202 38.1409 126.635 38.2503 125.956 38.2503C125.709 38.2503 125.498 38.2366 125.32 38.2093C125.147 38.1865 124.994 38.1614 124.862 38.1341V36.0355C124.962 36.0537 125.085 36.0719 125.231 36.0901C125.377 36.1084 125.529 36.1175 125.689 36.1175C125.985 36.1175 126.224 36.0582 126.407 35.9398C126.594 35.8213 126.746 35.664 126.865 35.4681C126.983 35.2767 127.086 35.0693 127.172 34.846L127.2 34.7776L124.151 27.1419Z" fill="white"/>
</svg>
