<svg width="33" height="33" viewBox="0 0 33 33" fill="none" xmlns="http://www.w3.org/2000/svg">
<rect x="0.966797" y="0.861511" width="32" height="32" rx="16" fill="black" fill-opacity="0.2"/>
<path fill-rule="evenodd" clip-rule="evenodd" d="M16.9675 14.1342C15.4613 14.1342 14.2402 15.3553 14.2402 16.8615C14.2402 18.3678 15.4613 19.5888 16.9675 19.5888C18.4737 19.5888 19.6948 18.3678 19.6948 16.8615C19.6948 15.3553 18.4737 14.1342 16.9675 14.1342ZM15.3311 16.8615C15.3311 17.7653 16.0638 18.4979 16.9675 18.4979C17.8712 18.4979 18.6039 17.7653 18.6039 16.8615C18.6039 15.9578 17.8712 15.2252 16.9675 15.2252C16.0638 15.2252 15.3311 15.9578 15.3311 16.8615Z" fill="white"/>
<path d="M20.2388 13.0433C19.9376 13.0433 19.6934 13.2875 19.6934 13.5888C19.6934 13.89 19.9376 14.1342 20.2388 14.1342C20.54 14.1342 20.7842 13.89 20.7842 13.5888C20.7842 13.2875 20.54 13.0433 20.2388 13.0433Z" fill="white"/>
<path fill-rule="evenodd" clip-rule="evenodd" d="M13.1486 10.8615C11.9436 10.8615 10.9668 11.8383 10.9668 13.0433V20.6797C10.9668 21.8847 11.9436 22.8615 13.1486 22.8615H20.7849C21.99 22.8615 22.9668 21.8847 22.9668 20.6797V13.0433C22.9668 11.8383 21.99 10.8615 20.7849 10.8615H13.1486ZM20.7849 11.9524H13.1486C12.5461 11.9524 12.0577 12.4408 12.0577 13.0433V20.6797C12.0577 21.2822 12.5461 21.7706 13.1486 21.7706H20.7849C21.3875 21.7706 21.8759 21.2822 21.8759 20.6797V13.0433C21.8759 12.4408 21.3875 11.9524 20.7849 11.9524Z" fill="white"/>
</svg>
