<svg width="33" height="33" viewBox="0 0 33 33" fill="none" xmlns="http://www.w3.org/2000/svg">
<rect x="0.966797" y="0.861511" width="32" height="32" rx="16" fill="black" fill-opacity="0.2"/>
<path fill-rule="evenodd" clip-rule="evenodd" d="M14.015 10.8615C14.7513 10.8615 15.3483 11.4585 15.3483 12.1948V14.1948H19.3483C20.0847 14.1948 20.6816 14.7918 20.6816 15.5282C20.6816 16.2646 20.0847 16.8615 19.3483 16.8615H15.3483V18.1948C15.3483 19.2994 16.2437 20.1949 17.3483 20.1949H19.3483C20.0847 20.1949 20.6816 20.7918 20.6816 21.5281C20.6816 22.2646 20.0847 22.8615 19.3483 22.8615H17.3483C14.771 22.8615 12.6816 20.7721 12.6816 18.1948V12.1948C12.6816 11.4585 13.2786 10.8615 14.015 10.8615Z" fill="white"/>
</svg>
