<svg width="33" height="33" viewBox="0 0 33 33" fill="none" xmlns="http://www.w3.org/2000/svg">
<rect x="0.966797" y="0.861511" width="32" height="32" rx="16" fill="black" fill-opacity="0.2"/>
<path fill-rule="evenodd" clip-rule="evenodd" d="M12.7668 13.6615H21.1668C21.4982 13.6615 21.7668 13.9301 21.7668 14.2615V19.0615C21.7668 19.3929 21.4982 19.6615 21.1668 19.6615H12.7668C12.4354 19.6615 12.1668 19.3929 12.1668 19.0615V14.2615C12.1668 13.9301 12.4354 13.6615 12.7668 13.6615ZM10.9668 14.2615C10.9668 13.2674 11.7727 12.4615 12.7668 12.4615H21.1668C22.1609 12.4615 22.9668 13.2674 22.9668 14.2615V19.0615C22.9668 20.0556 22.1609 20.8615 21.1668 20.8615H12.7668C11.7727 20.8615 10.9668 20.0556 10.9668 19.0615V14.2615ZM15.7668 14.8615L18.1668 16.6615L15.7668 18.4615V14.8615Z" fill="white"/>
</svg>
